<?xml version="1.0" standalone="no"?>
<!DOCTYPE svg PUBLIC "-//W3C//DTD SVG 20010904//EN"
 "http://www.w3.org/TR/2001/REC-SVG-20010904/DTD/svg10.dtd">
<svg version="1.0" xmlns="http://www.w3.org/2000/svg"
 width="192.000000pt" height="192.000000pt" viewBox="0 0 192.000000 192.000000"
 preserveAspectRatio="xMidYMid meet">
<metadata>
Created by potrace 1.14, written by Peter Selinger 2001-2017
</metadata>
<g transform="translate(0.000000,192.000000) scale(0.100000,-0.100000)"
fill="#000000" stroke="none">
<path d="M350 1720 c-85 -6 -113 -20 -137 -70 -14 -31 -16 -100 -15 -690 0
-360 2 -662 4 -670 7 -30 46 -75 74 -85 17 -6 125 -10 262 -10 150 0 232 -3
232 -10 0 -7 3 -7 8 0 10 14 265 14 274 0 5 -6 8 -5 8 3 0 10 5 10 21 1 12 -6
19 -7 16 -2 -8 12 266 11 275 -2 5 -6 8 -5 8 3 0 10 5 10 21 1 12 -6 19 -7 16
-2 -3 5 42 8 101 8 59 -1 116 3 126 8 38 19 65 53 73 92 5 22 8 328 7 680 -1
598 -2 643 -19 679 -32 68 -16 66 -683 69 -328 1 -631 0 -672 -3z"/>
</g>
</svg>
